<?xml version="1.0" encoding="UTF-8" standalone="no"?>
<!-- Created with Inkscape (http://www.inkscape.org/) -->

<svg
   width="297mm"
   height="210mm"
   viewBox="0 0 297 210"
   version="1.1"
   id="svg5"
   inkscape:version="1.1 (c68e22c387, 2021-05-23)"
   sodipodi:docname="MML-Interface-MaterialDesign.svg"
   xmlns:inkscape="http://www.inkscape.org/namespaces/inkscape"
   xmlns:sodipodi="http://sodipodi.sourceforge.net/DTD/sodipodi-0.dtd"
   xmlns="http://www.w3.org/2000/svg"
   xmlns:svg="http://www.w3.org/2000/svg">
  <sodipodi:namedview
     id="namedview7"
     pagecolor="#ffffff"
     bordercolor="#666666"
     borderopacity="1.0"
     inkscape:pageshadow="2"
     inkscape:pageopacity="0.0"
     inkscape:pagecheckerboard="0"
     inkscape:document-units="mm"
     showgrid="false"
     inkscape:zoom="0.97895833"
     inkscape:cx="560.80017"
     inkscape:cy="396.85039"
     inkscape:window-width="1920"
     inkscape:window-height="1027"
     inkscape:window-x="1912"
     inkscape:window-y="-8"
     inkscape:window-maximized="1"
     inkscape:current-layer="layer1" />
  <defs
     id="defs2">
    <rect
       x="877.20792"
       y="312.38561"
       width="14.237072"
       height="27.452649"
       id="rect56949" />
  </defs>
  <g
     inkscape:label="Camada 1"
     inkscape:groupmode="layer"
     id="layer1">
    <rect
       style="fill:#729fcf;fill-opacity:1;stroke-width:0.499999;stroke-linecap:round;stroke-linejoin:round"
       id="rect850"
       width="296.75674"
       height="20"
       x="0.28940135"
       y="-0.089394405"
       ry="0" />
    <rect
       style="fill:#729fcf;fill-opacity:1;stroke-width:0.499999;stroke-linecap:round;stroke-linejoin:round"
       id="rect850-8"
       width="296.75674"
       height="12.432432"
       x="0.27027646"
       y="198.10811"
       ry="0" />
    <g
       id="g1570"
       transform="matrix(0.67272725,0,0,0.67272725,91.904063,3.2742419)"
       style="stroke-width:1.48649">
      <circle
         style="fill:#ffffff;fill-opacity:1;stroke-width:0.743243;stroke-linecap:round;stroke-linejoin:round"
         id="path918"
         cx="284.45944"
         cy="9.8648653"
         r="7.4324327" />
      <circle
         style="fill:#729fcf;fill-opacity:1;stroke-width:0.743243;stroke-linecap:round;stroke-linejoin:round"
         id="path1296"
         cx="284.45944"
         cy="6.9343305"
         r="2.8378377" />
      <ellipse
         style="fill:#729fcf;fill-opacity:1;stroke-width:0.743243;stroke-linecap:round;stroke-linejoin:round"
         id="path1298"
         cx="284.45944"
         cy="12.679399"
         rx="6.0332527"
         ry="2.4324324" />
    </g>
    <g
       id="g1598"
       transform="matrix(0.49999612,0,0,0.49999612,-1.7175003,-42.791687)"
       style="stroke-width:2.00002">
      <path
         id="rect3845"
         style="fill:#0000c3;fill-opacity:1;stroke-width:0.200001;stroke-linecap:round;stroke-linejoin:round"
         d="m 22.049375,90.405287 c -0.841476,0 -1.51877,0.677293 -1.51877,1.51877 v 26.962183 c 0,0.84147 0.677294,1.51928 1.51877,1.51928 h 27.252083 c 0.841475,0 1.519288,-0.67781 1.519288,-1.51928 V 91.924057 c 0,-0.841477 -0.677813,-1.51877 -1.519288,-1.51877 z m -0.232544,1.265556 h 2.317172 v 2.069124 h -2.317172 z m 5.08031,0 h 2.317171 v 2.069124 h -2.317171 z m 5.079794,0 h 2.317171 v 2.069124 h -2.317171 z m 5.079793,0 h 2.317688 v 2.069124 h -2.317688 z m 5.08031,0 h 2.317171 v 2.069124 h -2.317171 z m 5.079792,0 h 2.317173 v 2.069124 H 47.21683 Z M 21.816831,117.07084 h 2.317172 v 2.06913 h -2.317172 z m 5.08031,0 h 2.317171 v 2.06913 h -2.317171 z m 5.079794,0 h 2.317171 v 2.06913 h -2.317171 z m 5.079793,0 h 2.317688 v 2.06913 h -2.317688 z m 5.08031,0 h 2.317171 v 2.06913 h -2.317171 z m 5.079792,0 h 2.317173 v 2.06913 H 47.21683 Z" />
      <path
         id="rect1953"
         style="fill:#ffff00;stroke-width:0.200001;stroke-linecap:round;stroke-linejoin:round"
         d="m 31.24468,95.906243 -0.535368,0.999939 h 9.939961 l -0.535367,-0.999939 z m -1.651579,3.084566 -0.535885,0.999939 h 13.243636 l -0.535368,-0.999939 z m -1.652096,3.085081 -0.535368,0.99994 h 16.547311 l -0.535368,-0.99994 z m -1.652095,3.08509 -0.535368,0.99993 h 19.851501 l -0.535368,-0.99993 z" />
      <path
         id="path3554"
         style="font-size:4.23333px;line-height:1.25;font-family:'Arial Black';-inkscape-font-specification:'Arial Black, Normal';letter-spacing:0px;word-spacing:0px;fill:#ffff00;fill-opacity:1;stroke-width:0.529169"
         d="m 27.430959,108.24437 v 6.50348 h 1.645894 v -3.92377 l 1.268656,3.92377 h 1.486214 l 1.268656,-3.90568 v 3.90568 h 1.645895 v -3.92377 l 1.269174,3.92377 h 1.485697 l 1.273308,-3.92377 v 3.92377 h 1.641243 3.504695 v -2.22283 h -3.136242 v -4.28065 h -0.368454 -1.641243 -0.993738 l -1.015959,3.47409 -1.020093,-3.47409 h -0.998388 -2.634982 l -1.015958,3.47409 -1.020093,-3.47409 z"
         sodipodi:nodetypes="ccccccccccccccccccccccccccccc" />
    </g>
    <text
       xml:space="preserve"
       style="font-size:4.23333px;line-height:1.25;font-family:Calibri;-inkscape-font-specification:Calibri;letter-spacing:0px;word-spacing:0px;fill:#ffffff;fill-opacity:1;stroke-width:0.264583"
       x="28.827929"
       y="11.624541"
       id="text2020"><tspan
         sodipodi:role="line"
         id="tspan2018"
         style="font-style:normal;font-variant:normal;font-weight:bold;font-stretch:normal;font-size:7.05556px;font-family:Calibri;-inkscape-font-specification:'Calibri, Bold';font-variant-ligatures:normal;font-variant-caps:normal;font-variant-numeric:normal;font-variant-east-asian:normal;fill:#ffffff;fill-opacity:1;stroke-width:0.264583"
         x="28.827929"
         y="11.624541">My Movies List</tspan></text>
    <path
       id="path6526"
       style="color:#000000;fill:#ffffff;fill-opacity:1;stroke-width:1;stroke-linecap:round;stroke-linejoin:round;-inkscape-stroke:none"
       d="m 263.31937,6.0334654 c -1.49715,1.4971497 -1.49715,3.9374394 0,5.4345836 1.44086,1.440876 3.75484,1.494518 5.26139,0.161953 l 3.15572,3.155717 a 0.42698293,0.42698293 0 0 0 0.60381,-3.13e-4 0.42698293,0.42698293 0 0 0 0,-0.603496 l -3.18567,-3.185675 c 1.08103,-1.5004641 0.94795,-3.6141498 -0.40068,-4.9627715 -1.49713,-1.4971456 -3.93744,-1.4971423 -5.43457,1.9e-6 z m 0.60381,0.6038086 c 1.1708,-1.1708036 3.05615,-1.1708057 4.22696,-2e-6 1.17081,1.170805 1.17081,3.0561684 0,4.226972 -1.17081,1.170806 -3.05617,1.170804 -4.22696,-2e-6 -1.17081,-1.1708067 -1.17081,-3.0561617 0,-4.226968 z" />
    <text
       xml:space="preserve"
       style="font-size:5.64444px;line-height:1.25;font-family:Calibri;-inkscape-font-specification:Calibri;letter-spacing:0px;word-spacing:0px;stroke-width:0.264583;fill:#ffffff;fill-opacity:1"
       x="7.8378334"
       y="205.94595"
       id="text7258"><tspan
         sodipodi:role="line"
         id="tspan7256"
         style="font-style:normal;font-variant:normal;font-weight:normal;font-stretch:normal;font-size:5.64444px;font-family:Calibri;-inkscape-font-specification:Calibri;font-variant-ligatures:normal;font-variant-caps:normal;font-variant-numeric:normal;font-variant-east-asian:normal;stroke-width:0.264583;fill:#ffffff;fill-opacity:1"
         x="7.8378334"
         y="205.94595">Terms</tspan></text>
    <text
       xml:space="preserve"
       style="font-size:5.64444px;line-height:1.25;font-family:Calibri;-inkscape-font-specification:Calibri;letter-spacing:0px;word-spacing:0px;fill:#ffffff;fill-opacity:1;stroke-width:0.264583"
       x="34.296165"
       y="205.94595"
       id="text11226"><tspan
         sodipodi:role="line"
         id="tspan11224"
         style="font-style:normal;font-variant:normal;font-weight:normal;font-stretch:normal;font-size:5.64444px;font-family:Calibri;-inkscape-font-specification:Calibri;font-variant-ligatures:normal;font-variant-caps:normal;font-variant-numeric:normal;font-variant-east-asian:normal;fill:#ffffff;fill-opacity:1;stroke-width:0.264583"
         x="34.296165"
         y="205.94595">Privacy</tspan></text>
    <text
       xml:space="preserve"
       style="font-size:5.64444px;line-height:1.25;font-family:Calibri;-inkscape-font-specification:Calibri;letter-spacing:0px;word-spacing:0px;fill:#ffffff;fill-opacity:1;stroke-width:0.264583"
       x="60.754505"
       y="205.94595"
       id="text12344"><tspan
         sodipodi:role="line"
         id="tspan12342"
         style="font-style:normal;font-variant:normal;font-weight:normal;font-stretch:normal;font-size:5.64444px;font-family:Calibri;-inkscape-font-specification:Calibri;font-variant-ligatures:normal;font-variant-caps:normal;font-variant-numeric:normal;font-variant-east-asian:normal;fill:#ffffff;fill-opacity:1;stroke-width:0.264583"
         x="60.754505"
         y="205.94595">About</tspan></text>
    <text
       xml:space="preserve"
       style="font-size:4.23333px;line-height:1.25;font-family:Calibri;-inkscape-font-specification:Calibri;letter-spacing:0px;word-spacing:0px;fill:#ffffff;fill-opacity:1;stroke-width:0.264583"
       x="258.48959"
       y="202.70271"
       id="text17780"><tspan
         sodipodi:role="line"
         style="font-style:normal;font-variant:normal;font-weight:normal;font-stretch:normal;font-size:4.23333px;font-family:Calibri;-inkscape-font-specification:Calibri;font-variant-ligatures:normal;font-variant-caps:normal;font-variant-numeric:normal;font-variant-east-asian:normal;text-align:end;text-anchor:end;fill:#ffffff;fill-opacity:1;stroke-width:0.264583"
         x="258.48959"
         y="202.70271"
         id="tspan17778">This is a</tspan></text>
    <text
       xml:space="preserve"
       style="font-size:4.23333px;line-height:1.25;font-family:Calibri;-inkscape-font-specification:Calibri;letter-spacing:0px;word-spacing:0px;fill:#ffffff;fill-opacity:1;stroke-width:0.264583"
       x="273.50339"
       y="207.99438"
       id="text13322"><tspan
         sodipodi:role="line"
         style="font-style:normal;font-variant:normal;font-weight:normal;font-stretch:normal;font-size:4.23333px;font-family:Calibri;-inkscape-font-specification:Calibri;font-variant-ligatures:normal;font-variant-caps:normal;font-variant-numeric:normal;font-variant-east-asian:normal;text-align:end;text-anchor:end;fill:#ffffff;fill-opacity:1;stroke-width:0.264583"
         x="273.50339"
         y="207.99438"
         id="tspan13740">created by</tspan></text>
    <text
       xml:space="preserve"
       style="font-size:4.23333px;line-height:1.25;font-family:Calibri;-inkscape-font-specification:Calibri;letter-spacing:0px;word-spacing:0px;fill:#0500b5;fill-opacity:1;stroke-width:0.264583"
       x="287.44617"
       y="202.70271"
       id="text17774"><tspan
         sodipodi:role="line"
         id="tspan17770"
         style="font-style:normal;font-variant:normal;font-weight:normal;font-stretch:normal;font-size:4.23333px;font-family:Calibri;-inkscape-font-specification:Calibri;font-variant-ligatures:normal;font-variant-caps:normal;font-variant-numeric:normal;font-variant-east-asian:normal;text-align:end;text-anchor:end;fill:#0500b5;fill-opacity:1;stroke-width:0.264583"
         x="287.44617"
         y="202.70271">portfolio project</tspan><tspan
         sodipodi:role="line"
         style="font-style:normal;font-variant:normal;font-weight:normal;font-stretch:normal;font-size:4.23333px;font-family:Calibri;-inkscape-font-specification:Calibri;font-variant-ligatures:normal;font-variant-caps:normal;font-variant-numeric:normal;font-variant-east-asian:normal;text-align:end;text-anchor:end;fill:#0500b5;fill-opacity:1;stroke-width:0.264583"
         x="287.44617"
         y="207.99437"
         id="tspan17772">itamarc</tspan></text>
    <g
       id="g24538"
       transform="translate(-1.0583333,-15.875)">
      <rect
         style="fill:#e1e1e1;fill-opacity:1;stroke:none;stroke-width:0.999999;stroke-linecap:round;stroke-linejoin:round;stroke-miterlimit:4;stroke-dasharray:none;stroke-opacity:1"
         id="rect23478"
         width="136.05399"
         height="28.749912"
         x="9.4855938"
         y="50.11874"
         ry="0" />
      <rect
         style="fill:#ffffff;fill-opacity:1;stroke:#c6c6c6;stroke-width:0.0999999;stroke-linecap:round;stroke-linejoin:round;stroke-miterlimit:4;stroke-dasharray:none;stroke-opacity:1"
         id="rect23110"
         width="136.05399"
         height="28.749912"
         x="9.053091"
         y="49.471729"
         ry="0" />
      <rect
         style="fill:#f2f2f2;fill-opacity:1;stroke:none;stroke-width:0.1;stroke-linecap:round;stroke-linejoin:round;stroke-miterlimit:4;stroke-dasharray:none;stroke-opacity:1"
         id="rect24178"
         width="88.648651"
         height="6.7567563"
         x="12.702703"
         y="64.594597" />
      <rect
         style="fill:#f2f2f2;fill-opacity:1;stroke:none;stroke-width:0.1;stroke-linecap:round;stroke-linejoin:round;stroke-miterlimit:4;stroke-dasharray:none;stroke-opacity:1"
         id="rect24450"
         width="112.16216"
         height="6.7567563"
         x="12.702703"
         y="55.069595" />
    </g>
    <g
       id="g24548"
       transform="translate(142.87503,-15.875)">
      <rect
         style="fill:#e1e1e1;fill-opacity:1;stroke:none;stroke-width:0.999999;stroke-linecap:round;stroke-linejoin:round;stroke-miterlimit:4;stroke-dasharray:none;stroke-opacity:1"
         id="rect24540"
         width="136.05399"
         height="28.749912"
         x="9.4855938"
         y="50.11874"
         ry="0" />
      <rect
         style="fill:#ffffff;fill-opacity:1;stroke:#c6c6c6;stroke-width:0.0999999;stroke-linecap:round;stroke-linejoin:round;stroke-miterlimit:4;stroke-dasharray:none;stroke-opacity:1"
         id="rect24542"
         width="136.05399"
         height="28.749912"
         x="9.053091"
         y="49.471729"
         ry="0" />
      <rect
         style="fill:#f2f2f2;fill-opacity:1;stroke:none;stroke-width:0.1;stroke-linecap:round;stroke-linejoin:round;stroke-miterlimit:4;stroke-dasharray:none;stroke-opacity:1"
         id="rect24544"
         width="88.648651"
         height="6.7567563"
         x="12.702703"
         y="64.594597" />
      <rect
         style="fill:#f2f2f2;fill-opacity:1;stroke:none;stroke-width:0.1;stroke-linecap:round;stroke-linejoin:round;stroke-miterlimit:4;stroke-dasharray:none;stroke-opacity:1"
         id="rect24546"
         width="112.16216"
         height="6.7567563"
         x="12.702703"
         y="55.069595" />
    </g>
    <text
       xml:space="preserve"
       style="font-size:4.23333px;line-height:1.25;font-family:Calibri;-inkscape-font-specification:Calibri;letter-spacing:0px;word-spacing:0px;fill:#ffffff;fill-opacity:1;stroke-width:0.264583"
       x="9.1984196"
       y="28.580622"
       id="text26326"><tspan
         sodipodi:role="line"
         id="tspan26324"
         style="font-style:normal;font-variant:normal;font-weight:bold;font-stretch:normal;font-size:7.05556px;font-family:Calibri;-inkscape-font-specification:'Calibri, Bold';font-variant-ligatures:normal;font-variant-caps:normal;font-variant-numeric:normal;font-variant-east-asian:normal;fill:#4853d4;fill-opacity:1;stroke-width:0.264583"
         x="9.1984196"
         y="28.580622">Movies Lists:</tspan></text>
    <g
       id="g27354"
       transform="translate(-1.0583333,21.166667)">
      <rect
         style="fill:#e1e1e1;fill-opacity:1;stroke:none;stroke-width:0.999999;stroke-linecap:round;stroke-linejoin:round;stroke-miterlimit:4;stroke-dasharray:none;stroke-opacity:1"
         id="rect27346"
         width="136.05399"
         height="28.749912"
         x="9.4855938"
         y="50.11874"
         ry="0" />
      <rect
         style="fill:#ffffff;fill-opacity:1;stroke:#c6c6c6;stroke-width:0.0999999;stroke-linecap:round;stroke-linejoin:round;stroke-miterlimit:4;stroke-dasharray:none;stroke-opacity:1"
         id="rect27348"
         width="136.05399"
         height="28.749912"
         x="9.053091"
         y="49.471729"
         ry="0" />
      <rect
         style="fill:#f2f2f2;fill-opacity:1;stroke:none;stroke-width:0.1;stroke-linecap:round;stroke-linejoin:round;stroke-miterlimit:4;stroke-dasharray:none;stroke-opacity:1"
         id="rect27350"
         width="88.648651"
         height="6.7567563"
         x="12.702703"
         y="64.594597" />
      <rect
         style="fill:#f2f2f2;fill-opacity:1;stroke:none;stroke-width:0.1;stroke-linecap:round;stroke-linejoin:round;stroke-miterlimit:4;stroke-dasharray:none;stroke-opacity:1"
         id="rect27352"
         width="112.16216"
         height="6.7567563"
         x="12.702703"
         y="55.069595" />
    </g>
    <g
       id="g27364"
       transform="translate(142.87503,21.166667)">
      <rect
         style="fill:#e1e1e1;fill-opacity:1;stroke:none;stroke-width:0.999999;stroke-linecap:round;stroke-linejoin:round;stroke-miterlimit:4;stroke-dasharray:none;stroke-opacity:1"
         id="rect27356"
         width="136.05399"
         height="28.749912"
         x="9.4855938"
         y="50.11874"
         ry="0" />
      <rect
         style="fill:#ffffff;fill-opacity:1;stroke:#c6c6c6;stroke-width:0.0999999;stroke-linecap:round;stroke-linejoin:round;stroke-miterlimit:4;stroke-dasharray:none;stroke-opacity:1"
         id="rect27358"
         width="136.05399"
         height="28.749912"
         x="9.053091"
         y="49.471729"
         ry="0" />
      <rect
         style="fill:#f2f2f2;fill-opacity:1;stroke:none;stroke-width:0.1;stroke-linecap:round;stroke-linejoin:round;stroke-miterlimit:4;stroke-dasharray:none;stroke-opacity:1"
         id="rect27360"
         width="88.648651"
         height="6.7567563"
         x="12.702703"
         y="64.594597" />
      <rect
         style="fill:#f2f2f2;fill-opacity:1;stroke:none;stroke-width:0.1;stroke-linecap:round;stroke-linejoin:round;stroke-miterlimit:4;stroke-dasharray:none;stroke-opacity:1"
         id="rect27362"
         width="112.16216"
         height="6.7567563"
         x="12.702703"
         y="55.069595" />
    </g>
    <g
       id="g27374"
       transform="translate(-1.0583333,58.208336)">
      <rect
         style="fill:#e1e1e1;fill-opacity:1;stroke:none;stroke-width:0.999999;stroke-linecap:round;stroke-linejoin:round;stroke-miterlimit:4;stroke-dasharray:none;stroke-opacity:1"
         id="rect27366"
         width="136.05399"
         height="28.749912"
         x="9.4855938"
         y="50.11874"
         ry="0" />
      <rect
         style="fill:#ffffff;fill-opacity:1;stroke:#c6c6c6;stroke-width:0.0999999;stroke-linecap:round;stroke-linejoin:round;stroke-miterlimit:4;stroke-dasharray:none;stroke-opacity:1"
         id="rect27368"
         width="136.05399"
         height="28.749912"
         x="9.053091"
         y="49.471729"
         ry="0" />
      <rect
         style="fill:#f2f2f2;fill-opacity:1;stroke:none;stroke-width:0.1;stroke-linecap:round;stroke-linejoin:round;stroke-miterlimit:4;stroke-dasharray:none;stroke-opacity:1"
         id="rect27370"
         width="88.648651"
         height="6.7567563"
         x="12.702703"
         y="64.594597" />
      <rect
         style="fill:#f2f2f2;fill-opacity:1;stroke:none;stroke-width:0.1;stroke-linecap:round;stroke-linejoin:round;stroke-miterlimit:4;stroke-dasharray:none;stroke-opacity:1"
         id="rect27372"
         width="112.16216"
         height="6.7567563"
         x="12.702703"
         y="55.069595" />
    </g>
    <g
       id="g27384"
       transform="translate(142.87503,58.208336)">
      <rect
         style="fill:#e1e1e1;fill-opacity:1;stroke:none;stroke-width:0.999999;stroke-linecap:round;stroke-linejoin:round;stroke-miterlimit:4;stroke-dasharray:none;stroke-opacity:1"
         id="rect27376"
         width="136.05399"
         height="28.749912"
         x="9.4855938"
         y="50.11874"
         ry="0" />
      <rect
         style="fill:#ffffff;fill-opacity:1;stroke:#c6c6c6;stroke-width:0.0999999;stroke-linecap:round;stroke-linejoin:round;stroke-miterlimit:4;stroke-dasharray:none;stroke-opacity:1"
         id="rect27378"
         width="136.05399"
         height="28.749912"
         x="9.053091"
         y="49.471729"
         ry="0" />
      <rect
         style="fill:#f2f2f2;fill-opacity:1;stroke:none;stroke-width:0.1;stroke-linecap:round;stroke-linejoin:round;stroke-miterlimit:4;stroke-dasharray:none;stroke-opacity:1"
         id="rect27380"
         width="88.648651"
         height="6.7567563"
         x="12.702703"
         y="64.594597" />
      <rect
         style="fill:#f2f2f2;fill-opacity:1;stroke:none;stroke-width:0.1;stroke-linecap:round;stroke-linejoin:round;stroke-miterlimit:4;stroke-dasharray:none;stroke-opacity:1"
         id="rect27382"
         width="112.16216"
         height="6.7567563"
         x="12.702703"
         y="55.069595" />
    </g>
    <path
       style="fill:none;stroke:#c5c5c5;stroke-width:2;stroke-linecap:round;stroke-linejoin:round;stroke-miterlimit:4;stroke-dasharray:none;stroke-opacity:1"
       d="m 139.18919,180.81082 10.62677,6.22202 10.62678,-6.04873"
       id="path27484"
       sodipodi:nodetypes="ccc" />
    <g
       id="g27909"
       transform="translate(-1.0583333,95.250005)">
      <rect
         style="fill:#e1e1e1;fill-opacity:1;stroke:none;stroke-width:0.999999;stroke-linecap:round;stroke-linejoin:round;stroke-miterlimit:4;stroke-dasharray:none;stroke-opacity:1"
         id="rect27901"
         width="136.05399"
         height="28.749912"
         x="9.4855938"
         y="50.11874"
         ry="0" />
      <rect
         style="fill:#ffffff;fill-opacity:1;stroke:#c6c6c6;stroke-width:0.0999999;stroke-linecap:round;stroke-linejoin:round;stroke-miterlimit:4;stroke-dasharray:none;stroke-opacity:1"
         id="rect27903"
         width="136.05399"
         height="28.749912"
         x="9.053091"
         y="49.471729"
         ry="0" />
      <rect
         style="fill:#f2f2f2;fill-opacity:1;stroke:none;stroke-width:0.1;stroke-linecap:round;stroke-linejoin:round;stroke-miterlimit:4;stroke-dasharray:none;stroke-opacity:1"
         id="rect27905"
         width="88.648651"
         height="6.7567563"
         x="12.702703"
         y="64.594597" />
      <rect
         style="fill:#f2f2f2;fill-opacity:1;stroke:none;stroke-width:0.1;stroke-linecap:round;stroke-linejoin:round;stroke-miterlimit:4;stroke-dasharray:none;stroke-opacity:1"
         id="rect27907"
         width="112.16216"
         height="6.7567563"
         x="12.702703"
         y="55.069595" />
    </g>
    <g
       id="g27919"
       transform="translate(142.87503,95.250005)">
      <rect
         style="fill:#e1e1e1;fill-opacity:1;stroke:none;stroke-width:0.999999;stroke-linecap:round;stroke-linejoin:round;stroke-miterlimit:4;stroke-dasharray:none;stroke-opacity:1"
         id="rect27911"
         width="136.05399"
         height="28.749912"
         x="9.4855938"
         y="50.11874"
         ry="0" />
      <rect
         style="fill:#ffffff;fill-opacity:1;stroke:#c6c6c6;stroke-width:0.0999999;stroke-linecap:round;stroke-linejoin:round;stroke-miterlimit:4;stroke-dasharray:none;stroke-opacity:1"
         id="rect27913"
         width="136.05399"
         height="28.749912"
         x="9.053091"
         y="49.471729"
         ry="0" />
      <rect
         style="fill:#f2f2f2;fill-opacity:1;stroke:none;stroke-width:0.1;stroke-linecap:round;stroke-linejoin:round;stroke-miterlimit:4;stroke-dasharray:none;stroke-opacity:1"
         id="rect27915"
         width="88.648651"
         height="6.7567563"
         x="12.702703"
         y="64.594597" />
      <rect
         style="fill:#f2f2f2;fill-opacity:1;stroke:none;stroke-width:0.1;stroke-linecap:round;stroke-linejoin:round;stroke-miterlimit:4;stroke-dasharray:none;stroke-opacity:1"
         id="rect27917"
         width="112.16216"
         height="6.7567563"
         x="12.702703"
         y="55.069595" />
    </g>
    <rect
       style="fill:#4853d4;fill-opacity:1;stroke:none;stroke-width:2;stroke-linecap:round;stroke-linejoin:round;stroke-miterlimit:4;stroke-dasharray:none;stroke-opacity:1"
       id="rect28016"
       width="68.108101"
       height="68.33667"
       x="223.9165"
       y="21.233778"
       ry="2.8843396" />
    <g
       id="g28774"
       transform="matrix(1.2260423,0,0,1.2260423,-58.510893,-9.5517376)"
       style="stroke-width:0.815633">
      <circle
         style="fill:#464646;fill-opacity:1;stroke-width:0.407816;stroke-linecap:round;stroke-linejoin:round"
         id="circle28132"
         cx="258.13257"
         cy="36.12682"
         r="8.2432432" />
      <circle
         style="fill:#cfbf72;fill-opacity:1;stroke-width:0.407816;stroke-linecap:round;stroke-linejoin:round"
         id="circle28134"
         cx="258.13257"
         cy="32.876591"
         r="3.1474199" />
      <ellipse
         style="fill:#cfbf72;fill-opacity:1;stroke-width:0.407816;stroke-linecap:round;stroke-linejoin:round"
         id="ellipse28136"
         cx="258.09879"
         cy="40.532177"
         rx="5.8130474"
         ry="3.914005" />
      <rect
         style="fill:#cfbf72;fill-opacity:1;stroke:none;stroke-width:1.63127;stroke-linecap:round;stroke-linejoin:round;stroke-miterlimit:4;stroke-dasharray:none;stroke-opacity:1"
         id="rect28162"
         width="1.9718784"
         height="1.8493279"
         x="257.15002"
         y="35.490475"
         ry="0" />
      <ellipse
         style="fill:#274c74;fill-opacity:1;stroke:none;stroke-width:1.63127;stroke-linecap:round;stroke-linejoin:round;stroke-miterlimit:4;stroke-dasharray:none;stroke-opacity:1"
         id="path28515"
         cx="257.17905"
         cy="31.993242"
         rx="0.25337836"
         ry="0.30405405" />
      <ellipse
         style="fill:#274c74;fill-opacity:1;stroke:none;stroke-width:1.63127;stroke-linecap:round;stroke-linejoin:round;stroke-miterlimit:4;stroke-dasharray:none;stroke-opacity:1"
         id="ellipse28539"
         cx="259.29575"
         cy="31.993242"
         rx="0.25337836"
         ry="0.30405405" />
      <ellipse
         style="fill:#274c74;fill-opacity:1;stroke:none;stroke-width:1.63127;stroke-linecap:round;stroke-linejoin:round;stroke-miterlimit:4;stroke-dasharray:none;stroke-opacity:1"
         id="path28643"
         cx="258.08203"
         cy="30.231203"
         rx="2.1858199"
         ry="0.60916293" />
      <ellipse
         style="fill:#274c74;fill-opacity:1;stroke:none;stroke-width:1.63127;stroke-linecap:round;stroke-linejoin:round;stroke-miterlimit:4;stroke-dasharray:none;stroke-opacity:1"
         id="path28645"
         cx="258.30896"
         cy="32.954521"
         rx="0.26277617"
         ry="0.70471793" />
      <ellipse
         style="fill:#274c74;fill-opacity:1;stroke:none;stroke-width:1.63127;stroke-linecap:round;stroke-linejoin:round;stroke-miterlimit:4;stroke-dasharray:none;stroke-opacity:1"
         id="path28647"
         cx="258.21341"
         cy="34.578953"
         rx="1.3377696"
         ry="0.34638676" />
    </g>
    <text
       xml:space="preserve"
       style="font-size:4.23333px;line-height:1.25;font-family:Calibri;-inkscape-font-specification:Calibri;letter-spacing:0px;word-spacing:0px;stroke-width:0.264583"
       x="252.15593"
       y="49.497475"
       id="text29504"><tspan
         sodipodi:role="line"
         id="tspan29502"
         style="fill:#ffffff;fill-opacity:1;stroke-width:0.264583"
         x="252.15593"
         y="49.497475">Itamar</tspan></text>
    <text
       xml:space="preserve"
       style="font-size:3.52778px;line-height:1.25;font-family:Calibri;-inkscape-font-specification:Calibri;letter-spacing:0px;word-spacing:0px;stroke-width:0.264583"
       x="243.589"
       y="53.201645"
       id="text32196"><tspan
         sodipodi:role="line"
         id="tspan32194"
         style="font-size:3.52778px;fill:#ffffff;fill-opacity:1;stroke-width:0.264583"
         x="243.589"
         y="53.201645">itamarc@gmail.com</tspan></text>
    <rect
       style="fill:#4853d4;fill-opacity:1;stroke:#ffffff;stroke-width:0.1;stroke-linecap:round;stroke-linejoin:round;stroke-miterlimit:4;stroke-dasharray:none;stroke-opacity:1"
       id="rect35130"
       width="33.730907"
       height="8.0266171"
       x="241.1051"
       y="57.046314"
       ry="1.1246336" />
    <text
       xml:space="preserve"
       style="font-size:4.23333px;line-height:1.25;font-family:Calibri;-inkscape-font-specification:Calibri;letter-spacing:0px;word-spacing:0px;stroke-width:0.264583"
       x="250.98184"
       y="62.14608"
       id="text35402"><tspan
         sodipodi:role="line"
         id="tspan35400"
         style="fill:#ffffff;fill-opacity:1;stroke-width:0.264583"
         x="250.98184"
         y="62.14608">Sign out</tspan></text>
    <path
       style="fill:none;stroke:#ffffff;stroke-width:0.1;stroke-linecap:butt;stroke-linejoin:miter;stroke-miterlimit:4;stroke-dasharray:none;stroke-opacity:1"
       d="m 223.90521,68.806808 h 68.1307"
       id="path36642" />
    <rect
       style="fill:#4853d4;fill-opacity:1;stroke:none;stroke-width:2;stroke-linecap:round;stroke-linejoin:round;stroke-miterlimit:4;stroke-dasharray:none;stroke-opacity:1"
       id="rect37099"
       width="68.108101"
       height="37.162159"
       x="149.8331"
       y="21.233778"
       ry="1.5685326" />
    <rect
       style="fill:#4853d4;fill-opacity:1;stroke:#ffffff;stroke-width:0.1;stroke-linecap:round;stroke-linejoin:round;stroke-miterlimit:4;stroke-dasharray:none;stroke-opacity:1"
       id="rect37129"
       width="33.730907"
       height="8.0266171"
       x="167.0217"
       y="29.529642"
       ry="1.1246336" />
    <text
       xml:space="preserve"
       style="font-size:4.23333px;line-height:1.25;font-family:Calibri;-inkscape-font-specification:Calibri;letter-spacing:0px;word-spacing:0px;stroke-width:0.264583"
       x="179.26212"
       y="34.629406"
       id="text37133"><tspan
         sodipodi:role="line"
         id="tspan37131"
         style="fill:#ffffff;fill-opacity:1;stroke-width:0.264583"
         x="179.26212"
         y="34.629406">Login</tspan></text>
    <rect
       style="fill:#4853d4;fill-opacity:1;stroke:#ffffff;stroke-width:0.1;stroke-linecap:round;stroke-linejoin:round;stroke-miterlimit:4;stroke-dasharray:none;stroke-opacity:1"
       id="rect37743"
       width="33.730907"
       height="8.0266171"
       x="167.0217"
       y="42.229645"
       ry="1.1246336" />
    <text
       xml:space="preserve"
       style="font-size:4.23333px;line-height:1.25;font-family:Calibri;-inkscape-font-specification:Calibri;letter-spacing:0px;word-spacing:0px;stroke-width:0.264583"
       x="176.81679"
       y="47.329411"
       id="text37747"><tspan
         sodipodi:role="line"
         id="tspan37745"
         style="fill:#ffffff;fill-opacity:1;stroke-width:0.264583"
         x="176.81679"
         y="47.329411">Register</tspan></text>
    <circle
       style="fill:#ffffff;fill-opacity:1;stroke-width:0.5;stroke-linecap:round;stroke-linejoin:round;stroke:#4853d4;stroke-opacity:1"
       id="circle39467"
       cx="182.99741"
       cy="21.261957"
       r="5" />
    <circle
       style="fill:#729fcf;fill-opacity:1;stroke-width:0.5;stroke-linecap:round;stroke-linejoin:round"
       id="circle39469"
       cx="182.99741"
       cy="19.290506"
       r="1.9090908" />
    <ellipse
       style="fill:#729fcf;fill-opacity:1;stroke-width:0.5;stroke-linecap:round;stroke-linejoin:round"
       id="ellipse39471"
       cx="182.99741"
       cy="23.155371"
       rx="4.0587335"
       ry="1.6363636" />
    <text
       xml:space="preserve"
       style="font-size:4.23333px;line-height:1.25;font-family:Calibri;-inkscape-font-specification:Calibri;letter-spacing:0px;word-spacing:0px;stroke-width:0.264583"
       x="234.93491"
       y="76.18605"
       id="text39598"><tspan
         sodipodi:role="line"
         id="tspan39596"
         style="fill:#ffffff;fill-opacity:1;stroke-width:0.264583"
         x="234.93491"
         y="76.18605">My Lists</tspan></text>
    <text
       xml:space="preserve"
       style="font-size:4.23333px;line-height:1.25;font-family:Calibri;-inkscape-font-specification:Calibri;letter-spacing:0px;word-spacing:0px;stroke-width:0.264583"
       x="234.93491"
       y="84.110107"
       id="text40410"><tspan
         sodipodi:role="line"
         id="tspan40408"
         style="fill:#ffffff;fill-opacity:1;stroke-width:0.264583"
         x="234.93491"
         y="84.110107">New List</tspan></text>
    <path
       id="path65273"
       style="font-size:21.3333px;line-height:1.25;font-family:Calibri;-inkscape-font-specification:'Calibri, Normal';letter-spacing:0px;word-spacing:0px;white-space:pre;fill:#ffffff;stroke-width:0.264583"
       d="m 229.00796,80.902038 c -1.02326,0 -1.8557,0.833988 -1.8557,1.857253 0,1.023263 0.83244,1.855182 1.8557,1.855182 1.02326,0 1.85725,-0.831919 1.85725,-1.855182 0,-1.023265 -0.83399,-1.857253 -1.85725,-1.857253 z m 0,0.300757 c 0.86113,0 1.55649,0.695365 1.55649,1.556496 0,0.861129 -0.69536,1.554427 -1.55649,1.554427 -0.86113,0 -1.55495,-0.693298 -1.55495,-1.554427 0,-0.861131 0.69382,-1.556493 1.55495,-1.556496 z m 0.001,0.263033 c -0.0368,0 -0.0691,0.0027 -0.0966,0.0083 -0.0257,0.0037 -0.047,0.0099 -0.0636,0.01912 -0.0147,0.0074 -0.0257,0.01763 -0.0331,0.03049 -0.007,0.01103 -0.0109,0.02355 -0.0109,0.03824 v 1.003556 h -0.90692 c -0.0147,0 -0.0285,0.0035 -0.0414,0.01085 -0.011,0.0074 -0.0208,0.01913 -0.03,0.03566 -0.009,0.01653 -0.0169,0.03783 -0.0222,0.06356 -0.005,0.02389 -0.008,0.05219 -0.008,0.08527 0,0.03491 0.002,0.06523 0.008,0.09095 0.005,0.02389 0.013,0.04445 0.0222,0.06098 0.009,0.01653 0.019,0.02831 0.03,0.03566 0.0129,0.0074 0.0279,0.01085 0.0445,0.01085 h 0.90382 v 1.003554 c 0,0.0147 0.004,0.02721 0.0109,0.03824 0.007,0.0092 0.0184,0.01745 0.0331,0.0248 0.0165,0.0073 0.0378,0.01411 0.0636,0.01964 0.0276,0.0037 0.0599,0.0052 0.0966,0.0052 0.0386,0 0.0704,-0.0015 0.0961,-0.0052 0.0257,-0.0055 0.0463,-0.01228 0.061,-0.01964 0.0165,-0.0073 0.0283,-0.01562 0.0357,-0.0248 0.007,-0.01103 0.0109,-0.02355 0.0109,-0.03824 v -1.003554 h 0.90434 c 0.0147,0 0.0285,-0.0035 0.0413,-0.01085 0.0129,-0.0074 0.0239,-0.01913 0.0331,-0.03566 0.009,-0.01653 0.0164,-0.03709 0.0217,-0.06098 0.005,-0.02572 0.008,-0.05604 0.008,-0.09095 0,-0.03307 -0.003,-0.06138 -0.008,-0.08527 -0.004,-0.02573 -0.0107,-0.04703 -0.0217,-0.06356 -0.009,-0.01653 -0.0202,-0.02831 -0.0331,-0.03566 -0.0111,-0.0074 -0.0241,-0.01085 -0.0387,-0.01085 h -0.90693 v -1.003556 c 0,-0.01469 -0.004,-0.02721 -0.0109,-0.03824 -0.007,-0.01286 -0.0191,-0.02313 -0.0357,-0.03049 -0.0147,-0.0092 -0.0352,-0.01545 -0.061,-0.01912 -0.0257,-0.0055 -0.0575,-0.0083 -0.0961,-0.0083 z" />
    <path
       id="path65336"
       style="color:#000000;fill:#ffffff;stroke-width:1;stroke-linecap:round;stroke-linejoin:round;-inkscape-stroke:none"
       d="m 227.36025,73.981793 a 0.15000001,0.15000001 0 0 0 -0.15037,0.150379 0.15000001,0.15000001 0 0 0 0.15037,0.150376 h 3.29696 a 0.15000001,0.15000001 0 0 0 0.15038,-0.150376 0.15000001,0.15000001 0 0 0 -0.15038,-0.150379 z m 0,1.05885 a 0.15000001,0.15000001 0 0 0 -0.15037,0.150378 0.15000001,0.15000001 0 0 0 0.15037,0.150379 h 3.29696 a 0.15000001,0.15000001 0 0 0 0.15038,-0.150379 0.15000001,0.15000001 0 0 0 -0.15038,-0.150378 z m 0,1.058333 a 0.15000001,0.15000001 0 0 0 -0.15037,0.150378 0.15000001,0.15000001 0 0 0 0.15037,0.150379 h 3.29696 a 0.15000001,0.15000001 0 0 0 0.15038,-0.150379 0.15000001,0.15000001 0 0 0 -0.15038,-0.150378 z" />
    <circle
       style="fill:#ffffff;fill-opacity:0.59383;stroke-width:0.5;stroke-linecap:round;stroke-linejoin:round"
       id="circle65716"
       cx="209.18434"
       cy="9.9106054"
       r="5.8599949" />
    <g
       id="g65724"
       transform="matrix(0.67272725,0,0,0.67272725,17.820725,3.2742419)"
       style="stroke-width:1.48649">
      <circle
         style="fill:#ffffff;fill-opacity:1;stroke-width:0.743243;stroke-linecap:round;stroke-linejoin:round"
         id="circle65718"
         cx="284.45944"
         cy="9.8648653"
         r="7.4324327" />
      <circle
         style="fill:#729fcf;fill-opacity:1;stroke-width:0.743243;stroke-linecap:round;stroke-linejoin:round"
         id="circle65720"
         cx="284.45944"
         cy="6.9343305"
         r="2.8378377" />
      <ellipse
         style="fill:#729fcf;fill-opacity:1;stroke-width:0.743243;stroke-linecap:round;stroke-linejoin:round"
         id="ellipse65722"
         cx="284.45944"
         cy="12.679399"
         rx="6.0332527"
         ry="2.4324324" />
    </g>
  </g>
</svg>
